<svg xmlns="http://www.w3.org/2000/svg" width="43.615" height="43.615" viewBox="0 0 43.615 43.615">
  <path id="_010-linkedin" data-name="010-linkedin" d="M21.807,0A21.807,21.807,0,1,0,43.615,21.807,21.81,21.81,0,0,0,21.807,0ZM15.47,32.967H10.159V16.988H15.47Zm-2.655-18.16H12.78a2.768,2.768,0,1,1,.07-5.521,2.769,2.769,0,1,1-.035,5.521Zm21.806,18.16h-5.31V24.419c0-2.148-.769-3.613-2.691-3.613A2.907,2.907,0,0,0,23.9,22.747a3.637,3.637,0,0,0-.175,1.3v8.923H18.41s.07-14.48,0-15.979H23.72v2.262a5.273,5.273,0,0,1,4.786-2.637c3.494,0,6.114,2.284,6.114,7.192Zm0,0" fill="#fff"/>
</svg>
