<svg id="_011-instagram" data-name="011-instagram" xmlns="http://www.w3.org/2000/svg" width="43.615" height="43.615" viewBox="0 0 43.615 43.615">
  <path id="Path_234" data-name="Path 234" d="M215.348,211.174A4.174,4.174,0,1,1,211.174,207,4.174,4.174,0,0,1,215.348,211.174Zm0,0" transform="translate(-189.367 -189.367)" fill="#fff"/>
  <path id="Path_235" data-name="Path 235" d="M155.513,138.369a4.147,4.147,0,0,0-2.377-2.377,6.928,6.928,0,0,0-2.325-.431c-1.321-.06-1.717-.073-5.06-.073s-3.74.013-5.06.073a6.932,6.932,0,0,0-2.325.431,4.149,4.149,0,0,0-2.377,2.377,6.931,6.931,0,0,0-.431,2.325c-.06,1.32-.073,1.716-.073,5.06s.013,3.74.073,5.06a6.928,6.928,0,0,0,.431,2.325,4.147,4.147,0,0,0,2.377,2.377,6.92,6.92,0,0,0,2.325.431c1.32.06,1.716.073,5.06.073s3.74-.013,5.06-.073a6.92,6.92,0,0,0,2.325-.431,4.147,4.147,0,0,0,2.377-2.377,6.934,6.934,0,0,0,.431-2.325c.06-1.321.073-1.717.073-5.06s-.013-3.74-.073-5.06A6.92,6.92,0,0,0,155.513,138.369Zm-9.762,13.815a6.43,6.43,0,1,1,6.43-6.43A6.43,6.43,0,0,1,145.751,152.185Zm6.684-11.612a1.5,1.5,0,1,1,1.5-1.5A1.5,1.5,0,0,1,152.435,140.573Zm0,0" transform="translate(-123.943 -123.947)" fill="#fff"/>
  <path id="Path_236" data-name="Path 236" d="M21.807,0A21.807,21.807,0,1,0,43.615,21.807,21.81,21.81,0,0,0,21.807,0ZM34.254,26.97a9.187,9.187,0,0,1-.582,3.04,6.4,6.4,0,0,1-3.662,3.662,9.194,9.194,0,0,1-3.039.582c-1.335.061-1.762.076-5.163.076s-3.827-.015-5.163-.076a9.194,9.194,0,0,1-3.039-.582A6.4,6.4,0,0,1,9.943,30.01a9.185,9.185,0,0,1-.582-3.039c-.062-1.336-.076-1.762-.076-5.163s.014-3.827.076-5.163a9.188,9.188,0,0,1,.582-3.04A6.407,6.407,0,0,1,13.6,9.943a9.2,9.2,0,0,1,3.04-.582c1.335-.061,1.762-.076,5.163-.076s3.827.015,5.163.076a9.2,9.2,0,0,1,3.04.581A6.4,6.4,0,0,1,33.672,13.6a9.186,9.186,0,0,1,.582,3.04c.061,1.335.075,1.762.075,5.163S34.315,25.635,34.254,26.97Zm0,0" fill="#fff"/>
</svg>
