<svg xmlns="http://www.w3.org/2000/svg" width="49.215" height="49.215" viewBox="0 0 49.215 49.215"><defs><style>.a{fill:#24ab48;}</style></defs><path class="a" d="M291.472,508.668q-.308.05-.617.092Q291.165,508.718,291.472,508.668Zm0,0" transform="translate(-262.897 -459.773)"/><path class="a" d="M299.633,507.793l-.294.052Zm0,0" transform="translate(-270.566 -458.983)"/><path class="a" d="M278.333,510.34q-.36.041-.723.071Q277.973,510.381,278.333,510.34Zm0,0" transform="translate(-250.925 -461.285)"/><path class="a" d="M286.793,509.738l-.347.043Zm0,0" transform="translate(-258.912 -460.741)"/><path class="a" d="M306.924,506.41l-.26.055Zm0,0" transform="translate(-277.187 -457.733)"/><path class="a" d="M324.694,502.113l-.21.058Zm0,0" transform="translate(-293.294 -453.849)"/><path class="a" d="M319.287,503.543l-.228.059Zm0,0" transform="translate(-288.39 -455.141)"/><path class="a" d="M312.309,505.254l-.242.055Zm0,0" transform="translate(-282.07 -456.688)"/><path class="a" d="M273.869,511.09q-.194.016-.389.029Q273.675,511.106,273.869,511.09Zm0,0" transform="translate(-247.193 -461.963)"/><path class="a" d="M49.215,24.607A24.607,24.607,0,1,0,24.607,49.215c.145,0,.288,0,.433-.006V30.053H19.753V23.892H25.04V19.358c0-5.258,3.21-8.12,7.9-8.12a43.52,43.52,0,0,1,4.74.242v5.5H34.446c-2.552,0-3.046,1.213-3.046,2.992v3.924h6.1l-.8,6.161H31.4V48.264A24.621,24.621,0,0,0,49.215,24.607Zm0,0"/><path class="a" d="M265.662,511.43q-.384.025-.771.038Q265.278,511.455,265.662,511.43Zm0,0" transform="translate(-239.429 -462.27)"/><path class="a" d="M260.912,511.836q-.2.007-.409.01Q260.709,511.843,260.912,511.836Zm0,0" transform="translate(-235.464 -462.637)"/></svg>