<svg xmlns="http://www.w3.org/2000/svg" width="49.215" height="49.215" viewBox="0 0 49.215 49.215"><defs><style>.a{fill:#24ab48;}</style></defs><path class="a" d="M24.607,0A24.607,24.607,0,1,0,49.215,24.607,24.61,24.61,0,0,0,24.607,0ZM17.457,37.2H11.464V19.169h5.993Zm-3-20.492h-.039a3.124,3.124,0,1,1,.079-6.23,3.125,3.125,0,1,1-.04,6.23ZM39.066,37.2H33.074V27.554c0-2.424-.868-4.077-3.036-4.077a3.281,3.281,0,0,0-3.075,2.192,4.1,4.1,0,0,0-.2,1.462V37.2H20.773s.078-16.339,0-18.03h5.993v2.553a5.95,5.95,0,0,1,5.4-2.976c3.943,0,6.9,2.577,6.9,8.115Zm0,0"/></svg>