<svg xmlns="http://www.w3.org/2000/svg" width="49.215" height="49.215" viewBox="0 0 49.215 49.215"><defs><style>.a{fill:#24ab48;}</style></defs><path class="a" d="M216.42,211.71a4.71,4.71,0,1,1-4.71-4.71A4.71,4.71,0,0,1,216.42,211.71Zm0,0" transform="translate(-187.103 -187.103)"/><path class="a" d="M158.084,138.739a4.679,4.679,0,0,0-2.682-2.682,7.817,7.817,0,0,0-2.623-.486c-1.49-.068-1.937-.083-5.71-.083s-4.22.014-5.71.082a7.822,7.822,0,0,0-2.624.487,4.681,4.681,0,0,0-2.682,2.682,7.821,7.821,0,0,0-.486,2.624c-.068,1.49-.083,1.937-.083,5.71s.015,4.22.083,5.71a7.818,7.818,0,0,0,.486,2.624,4.679,4.679,0,0,0,2.682,2.682,7.808,7.808,0,0,0,2.624.487c1.49.068,1.936.082,5.709.082s4.22-.014,5.71-.082a7.808,7.808,0,0,0,2.624-.487,4.679,4.679,0,0,0,2.682-2.682,7.825,7.825,0,0,0,.487-2.624c.068-1.49.082-1.937.082-5.71s-.014-4.22-.082-5.71A7.808,7.808,0,0,0,158.084,138.739Zm-11.015,15.589a7.256,7.256,0,1,1,7.256-7.256A7.256,7.256,0,0,1,147.069,154.328Zm7.543-13.1a1.7,1.7,0,1,1,1.7-1.7A1.7,1.7,0,0,1,154.612,141.226Zm0,0" transform="translate(-122.462 -122.465)"/><path class="a" d="M24.607,0A24.607,24.607,0,1,0,49.215,24.607,24.61,24.61,0,0,0,24.607,0ZM38.652,30.433A10.367,10.367,0,0,1,38,33.863,7.225,7.225,0,0,1,33.863,38a10.374,10.374,0,0,1-3.43.657c-1.507.069-1.988.085-5.826.085s-4.319-.017-5.826-.085A10.374,10.374,0,0,1,15.352,38a7.225,7.225,0,0,1-4.133-4.133,10.364,10.364,0,0,1-.657-3.43c-.069-1.507-.086-1.989-.086-5.826s.016-4.319.085-5.826a10.368,10.368,0,0,1,.656-3.43,7.23,7.23,0,0,1,4.133-4.133,10.376,10.376,0,0,1,3.43-.657c1.507-.069,1.988-.085,5.826-.085s4.319.017,5.826.086a10.379,10.379,0,0,1,3.43.656A7.227,7.227,0,0,1,38,15.352a10.366,10.366,0,0,1,.657,3.43c.069,1.507.085,1.988.085,5.826S38.721,28.926,38.652,30.433Zm0,0"/></svg>