<svg id="diamond" xmlns="http://www.w3.org/2000/svg" width="50.86" height="50.86" viewBox="0 0 50.86 50.86">
  <path id="Path_1" data-name="Path 1" d="M50.859,109.386l-25.43,30-.152-.179L0,109.386l11.273-11.1H39.586Zm0,0" transform="translate(0 -88.526)" fill="#8e8e8e"/>
  <path id="Path_2" data-name="Path 2" d="M281.43,109.386l-25.43,30v-41.1h14.156Zm0,0" transform="translate(-230.57 -88.525)" fill="#24ab48"/>
  <path id="Path_3" data-name="Path 3" d="M187.286,109.361H170.25l8.366-10.874.152-.2Zm0,0" transform="translate(-153.338 -88.525)" fill="#56e581"/>
  <path id="Path_4" data-name="Path 4" d="M346.262,98.289,340.5,109.361h17.036Zm0,0" transform="translate(-306.677 -88.526)" fill="#56e581"/>
  <path id="Path_5" data-name="Path 5" d="M11.274,98.289l5.762,11.072H0Zm0,0" transform="translate(0 -88.526)" fill="#f5f5f5"/>
  <path id="Path_6" data-name="Path 6" d="M241,0h2.98V6.175H241Zm0,0" transform="translate(-217.06)" fill="#f5f5f5"/>
  <path id="Path_7" data-name="Path 7" d="M316.848,11.019l2.416-5.789,2.75,1.148L319.6,12.167Zm0,0" transform="translate(-285.374 -4.711)" fill="#56e581"/>
  <path id="Path_8" data-name="Path 8" d="M143.137,6.371l2.75-1.148,2.416,5.789-2.75,1.148Zm0,0" transform="translate(-128.918 -4.704)" fill="#bcbcbc"/>
  <path id="Path_9" data-name="Path 9" d="M188.288,209.75l-8.394,30.024-.152-.543L171.5,209.75Zm0,0" transform="translate(-154.464 -188.914)" fill="#f5f5f5"/>
  <path id="Path_10" data-name="Path 10" d="M256,0h1.49V6.175H256Zm0,0" transform="translate(-230.57)" fill="#24ab48"/>
  <path id="Path_11" data-name="Path 11" d="M264.518,109.361h-.124L256,139.385v-41.1Zm0,0" transform="translate(-230.57 -88.525)" fill="#56e581"/>
  <path id="Path_12" data-name="Path 12" d="M264.518,109.361H256V98.289Zm0,0" transform="translate(-230.57 -88.525)" fill="#f5f5f5"/>
</svg>
