<svg id="_001-facebook" data-name="001-facebook" xmlns="http://www.w3.org/2000/svg" width="43.615" height="43.615" viewBox="0 0 43.615 43.615">
  <path id="Path_222" data-name="Path 222" d="M291.4,508.668q-.273.045-.547.082Q291.13,508.712,291.4,508.668Zm0,0" transform="translate(-266.079 -465.337)" fill="#fff"/>
  <path id="Path_223" data-name="Path 223" d="M299.6,507.793l-.261.046Zm0,0" transform="translate(-273.84 -464.536)" fill="#fff"/>
  <path id="Path_224" data-name="Path 224" d="M278.251,510.34q-.319.036-.641.063Q277.932,510.376,278.251,510.34Zm0,0" transform="translate(-253.961 -466.867)" fill="#fff"/>
  <path id="Path_225" data-name="Path 225" d="M286.753,509.738l-.307.038Zm0,0" transform="translate(-262.045 -466.316)" fill="#fff"/>
  <path id="Path_226" data-name="Path 226" d="M306.894,506.41l-.23.048Zm0,0" transform="translate(-280.541 -463.271)" fill="#fff"/>
  <path id="Path_227" data-name="Path 227" d="M324.67,502.113l-.186.052Zm0,0" transform="translate(-296.843 -459.34)" fill="#fff"/>
  <path id="Path_228" data-name="Path 228" d="M319.261,503.543l-.2.053Zm0,0" transform="translate(-291.88 -460.649)" fill="#fff"/>
  <path id="Path_229" data-name="Path 229" d="M312.281,505.254l-.215.048Zm0,0" transform="translate(-285.483 -462.214)" fill="#fff"/>
  <path id="Path_230" data-name="Path 230" d="M273.825,511.09q-.172.014-.345.026Q273.653,511.1,273.825,511.09Zm0,0" transform="translate(-250.184 -467.553)" fill="#fff"/>
  <path id="Path_231" data-name="Path 231" d="M43.615,21.807A21.807,21.807,0,1,0,21.807,43.615c.128,0,.256,0,.383,0V26.634H17.506v-5.46h4.685V17.156c0-4.66,2.845-7.2,7-7.2a38.568,38.568,0,0,1,4.2.215v4.87H30.526c-2.261,0-2.7,1.075-2.7,2.652v3.478h5.407l-.7,5.46h-4.7V42.772A21.819,21.819,0,0,0,43.615,21.807Zm0,0" fill="#fff"/>
  <path id="Path_232" data-name="Path 232" d="M265.574,511.43q-.34.022-.683.034Q265.233,511.452,265.574,511.43Zm0,0" transform="translate(-242.326 -467.864)" fill="#fff"/>
  <path id="Path_233" data-name="Path 233" d="M260.866,511.836q-.181.006-.362.009Q260.685,511.842,260.866,511.836Zm0,0" transform="translate(-238.313 -468.235)" fill="#fff"/>
</svg>
