<svg id="Flat" xmlns="http://www.w3.org/2000/svg" width="46.946" height="58.932" viewBox="0 0 46.946 58.932">
  <path id="Path_173" data-name="Path 173" d="M202.978,269.984l-10.987,10.987L184,272.98l4-4v-5.993L194.987,256a4.221,4.221,0,0,1,1.234,2.762c0,.079.008.156.008.235a4.226,4.226,0,0,1-1.241,3Z" transform="translate(-169.017 -227.033)" fill="#f5f5f5"/>
  <path id="Path_174" data-name="Path 174" d="M257.412,315.4,256,313.988a5.685,5.685,0,0,0,.556-7.345,1,1,0,0,1,.1-1.3L258,304l1.412,1.412-.773.773A7.7,7.7,0,0,1,257.412,315.4Z" transform="translate(-232.027 -269.04)" fill="#bcbcbc"/>
  <path id="Path_175" data-name="Path 175" d="M251.989,289.342l-3.41,3.41-8.283-8.283a1,1,0,0,1,0-1.413l4.936-4.936c.005.079.007.156.007.235a4.226,4.226,0,0,1-1.241,3Z" transform="translate(-218.028 -246.392)" fill="#bcbcbc"/>
  <path id="Path_176" data-name="Path 176" d="M256,284.994l7.991,7.991,4.994-4.994L260.994,280Z" transform="translate(-232.028 -248.037)" fill="#f5f5f5"/>
  <path id="Path_177" data-name="Path 177" d="M64,383.982,79.982,368l10.987,10.987-4.994,4.994Z" transform="translate(-64 -325.049)" fill="#8e8e8e"/>
  <path id="Path_178" data-name="Path 178" d="M0,0H4.238V14.126H0Z" transform="translate(31.954 44.948) rotate(-45)" fill="#bcbcbc"/>
  <path id="Path_179" data-name="Path 179" d="M0,0H4.238V28.252H0Z" transform="translate(0.996 13.985) rotate(-45)" fill="#bcbcbc"/>
  <path id="Path_180" data-name="Path 180" d="M232,35.986,243.986,24,257.97,37.984,247.482,48.472a2.119,2.119,0,0,1-3,0Z" transform="translate(-211.024 -24)" fill="#24ab48"/>
  <path id="Path_181" data-name="Path 181" d="M96,61.135,109.485,47.65a2.119,2.119,0,0,1,3,0l13.984,13.984a2.119,2.119,0,0,0-3,0L109.984,75.119Z" transform="translate(-92.005 -44.154)" fill="#56e581"/>
  <path id="Path_182" data-name="Path 182" d="M302.114,161.148a2.111,2.111,0,0,1-.62,1.5l-1,1a2.118,2.118,0,0,0,0,3L296,162.147l2.5-2.5a2.119,2.119,0,0,1,3.617,1.5Z" transform="translate(-267.033 -142.17)" fill="#118430"/>
</svg>
