<svg id="search" xmlns="http://www.w3.org/2000/svg" width="50.859" height="50.86" viewBox="0 0 50.859 50.86">
  <path id="Path_13" data-name="Path 13" d="M0,0H8.94V2.483H0Z" transform="translate(17.871 31.578) rotate(-45)" fill="#bcbcbc"/>
  <path id="Path_14" data-name="Path 14" d="M0,0H8.94V1.49H0Z" transform="translate(17.52 31.226) rotate(-45)" fill="#f5f5f5"/>
  <path id="Path_15" data-name="Path 15" d="M18.427,403.381l-5.268,9.482a4.475,4.475,0,0,0,6.322,0l2.107-2.107Z" transform="translate(-11.852 -363.311)" fill="#bcbcbc"/>
  <path id="Path_16" data-name="Path 16" d="M3.415,413.988,1.308,416.1a4.475,4.475,0,0,0,0,6.322l7.375-7.375Z" transform="translate(-0.001 -372.864)" fill="#f5f5f5"/>
  <path id="Path_17" data-name="Path 17" d="M69.353,321.031l14.11-14.11L80.3,303.76l-9.162,4.948-4.948,9.162Z" transform="translate(-59.617 -273.586)" fill="#24ab48"/>
  <path id="Path_18" data-name="Path 18" d="M0,0H19.955V4.47H0Z" transform="translate(3.411 41.12) rotate(-45)" fill="#56e581"/>
  <path id="Path_19" data-name="Path 19" d="M252.724,48.474l-17.437,5.812-5.812,17.437a16.44,16.44,0,0,0,23.25-23.25Z" transform="translate(-206.679 -43.659)" fill="#8e8e8e"/>
  <path id="Path_20" data-name="Path 20" d="M185.815,4.815a16.44,16.44,0,0,0,0,23.25l23.25-23.25A16.44,16.44,0,0,0,185.815,4.815Z" transform="translate(-163.02 0)" fill="#bcbcbc"/>
  <path id="Path_21" data-name="Path 21" d="M286.721,90.9l-11.116,3.705L271.9,105.721A10.48,10.48,0,0,0,286.721,90.9Z" transform="translate(-244.891 -81.87)" fill="#bcbcbc"/>
  <path id="Path_22" data-name="Path 22" d="M244.069,63.069a10.48,10.48,0,0,0,0,14.821L258.89,63.069A10.48,10.48,0,0,0,244.069,63.069Z" transform="translate(-217.06 -54.04)" fill="#fff"/>
</svg>
