<svg xmlns="http://www.w3.org/2000/svg" width="43.615" height="43.615" viewBox="0 0 43.615 43.615">
  <path id="_002-twitter" data-name="002-twitter" d="M21.807,0A21.807,21.807,0,1,0,43.615,21.807,21.81,21.81,0,0,0,21.807,0Zm2.813,34.122c-5.366.093-7.4-3.823-7.4-6.579V19.5H14.728V16.314a7.537,7.537,0,0,0,4.847-6.639.2.2,0,0,1,.178-.184H23.36v6.275h4.93V19.5H23.343v7.668a2.161,2.161,0,0,0,2.371,2.428,5.8,5.8,0,0,0,1.987-.425l1.185,3.512c-.444.655-2.455,1.412-4.265,1.443Zm0,0" fill="#fff"/>
</svg>
